<?xml version="1.0" encoding="UTF-8"?>
<svg version="1.1" xmlns="http://www.w3.org/2000/svg" width="477" height="417">
<path d="M0 0 C3.63936677 1.21312226 4.07100395 2.55947208 5.73716736 5.86334229 C6.07534988 6.55925476 6.41353241 7.25516724 6.76196289 7.97216797 C7.12672729 8.70257294 7.4914917 9.43297791 7.86730957 10.18551636 C9.07850283 12.61652144 10.27543203 15.05427665 11.47265625 17.4921875 C12.31786553 19.19448582 13.16402625 20.89631204 14.01109314 22.59768677 C16.25010108 27.1005274 18.47743414 31.60904201 20.70202637 36.11901855 C24.23395745 43.2738331 27.78492754 50.41922815 31.33294487 57.56607437 C32.55749516 60.03617653 33.7780998 62.5081913 34.99781799 64.98068237 C39.77011976 74.63604793 44.69042127 84.20092557 49.74021912 93.71414185 C54.72206502 103.1176432 59.39477479 112.66132965 63.875 122.3125 C66.91484756 128.84404443 70.18520652 135.2161677 73.58105469 141.56860352 C79.06056778 151.88917039 84.21304784 162.37717499 89.40380859 172.8449707 C92.79719792 179.675518 96.22555182 186.47003545 99.8671875 193.171875 C103.03727035 199.03317402 105.94478836 204.99594156 108.79296875 211.01953125 C113.7849579 221.56512441 118.95627782 232.01480325 124.17578125 242.44921875 C124.78869837 243.67462057 124.78869837 243.67462057 125.41399765 244.92477798 C127.94729486 249.98787488 130.48368885 255.04941583 133.02093506 260.11053467 C135.18275646 264.42385924 137.34225774 268.73834503 139.50195312 273.05273438 C142.66843528 279.37782031 145.83610398 285.70230976 149.00512695 292.02612305 C152.34061181 298.68215492 155.67211246 305.3401656 159 312 C161.62130093 308.59456497 163.69391522 305.04800806 165.6875 301.25 C166.03997803 300.58371582 166.39245605 299.91743164 166.75561523 299.23095703 C169.41341956 294.18059595 171.97254772 289.08327453 174.5065918 283.9699707 C178.09622129 276.75407415 181.79676958 269.59551969 185.5 262.4375 C185.83010071 261.79936371 186.16020142 261.16122742 186.50030518 260.50375366 C190.10365736 253.54223472 193.72200864 246.59002745 197.4375 239.6875 C200.35438054 234.26147492 203.12795629 228.77825836 205.86108398 223.25854492 C208.85530485 217.23450095 211.98112643 211.28356314 215.14794922 205.34863281 C218.83665015 198.40428599 222.33567849 191.36688129 225.83984375 184.32836914 C227.94055079 180.11236681 230.0490009 175.90023514 232.15625 171.6875 C232.95641328 170.08725612 233.75654246 168.48699519 234.55664062 166.88671875 C238.70442708 158.59114583 242.85221354 150.29557292 247 142 C265.15 142 283.3 142 302 142 C301.16254483 146.18727586 300.45174718 148.39976711 298.48046875 152 C297.69833008 153.4377478 297.69833008 153.4377478 296.90039062 154.90454102 C296.33513672 155.92604248 295.76988281 156.94754395 295.1875 158 C294.60291016 159.06726318 294.01832031 160.13452637 293.41601562 161.23413086 C288.22908517 170.66866496 282.89282787 180.01530989 277.52246094 189.34619141 C268.48019736 205.10780223 259.63575047 220.98367609 250.76611328 236.84277344 C247.84601863 242.06293711 244.92286434 247.28138679 242 252.5 C240.83331846 254.58332501 239.6666518 256.66665834 238.5 258.75 C236.16666667 262.91666667 233.83333333 267.08333333 231.5 271.25 C230.92241943 272.28141113 230.34483887 273.31282227 229.74975586 274.37548828 C228.58396248 276.45722732 227.41810968 278.53893309 226.25219727 280.62060547 C223.3216794 285.85305923 220.39222084 291.08610086 217.46484375 296.3203125 C211.30021089 307.34027567 205.11490289 318.34796384 198.89428711 329.33642578 C194.90941724 336.37976018 190.95010992 343.4371206 187 350.5 C176.43246846 369.39001074 165.75943662 388.21866545 155 407 C154.34 407 153.68 407 153 407 C145.73459661 392.09645302 138.49822876 377.18547091 131.5625 362.125 C125.16714873 348.24769418 118.49574387 334.51125657 111.8061676 320.77416992 C108.8878104 314.77787186 105.99887634 308.76774648 103.125 302.75 C102.69002197 301.83943848 102.25504395 300.92887695 101.80688477 299.99072266 C99.66053881 295.49288029 97.52113505 290.99179623 95.38671875 286.48828125 C91.72462954 278.76702547 88.05793917 271.05679387 84.1875 263.4375 C80.75486869 256.67917293 77.58332533 249.80840336 74.41732788 242.92175293 C70.26976235 233.9007868 66.06332461 224.95591404 61.31054688 216.23413086 C58.1845855 210.46120903 55.3647489 204.56080535 52.5625 198.625 C48.77734928 190.61120857 44.81107029 182.73549759 40.62915039 174.92236328 C37.75442781 169.51964125 35.08308832 164.04753027 32.5 158.5 C29.09450031 151.1895876 25.45313764 144.03933199 21.66455078 136.9206543 C17.98851438 130.01002067 14.47423885 123.02834202 11.00292969 116.01318359 C9.92176447 113.84295761 8.82556384 111.68077649 7.7265625 109.51953125 C7.35418457 108.78436279 6.98180664 108.04919434 6.59814453 107.29174805 C5.8807802 105.87631709 5.16052546 104.46234633 4.43701172 103.05004883 C2 98.22456899 2 98.22456899 2 96 C1.34 96 0.68 96 0 96 C-0.11069824 96.71486572 -0.22139648 97.42973145 -0.33544922 98.16625977 C-1.05447462 101.23228762 -2.15594155 103.56122004 -3.6328125 106.33984375 C-4.45990723 107.91185547 -4.45990723 107.91185547 -5.30371094 109.515625 C-5.90473633 110.64484375 -6.50576172 111.7740625 -7.125 112.9375 C-8.40762363 115.37161747 -9.68472096 117.80861196 -10.9609375 120.24609375 C-11.29186401 120.87716034 -11.62279053 121.50822693 -11.96374512 122.15841675 C-15.65816975 129.22290632 -19.20503617 136.35969582 -22.75 143.5 C-27.23583303 152.52828947 -31.80394366 161.50046391 -36.55322266 170.39379883 C-41.00223827 178.7845856 -45.00627403 187.38551379 -49 196 C-47.85402344 195.72285156 -46.70804687 195.44570312 -45.52734375 195.16015625 C-43.9974356 194.79410461 -42.46748543 194.42822853 -40.9375 194.0625 C-39.80924805 193.78889648 -39.80924805 193.78889648 -38.65820312 193.50976562 C-14.62268564 187.78702337 9.80465642 190.05748909 31.3828125 202.34765625 C47.7370164 212.67277304 62.12394535 228.76070012 69 247 C65.76934599 245.584802 63.7272805 243.86218962 61.25 241.375 C55.0132603 235.70617534 47.63723382 232.38525413 40 229 C39.1853125 228.63777344 38.370625 228.27554688 37.53125 227.90234375 C14.02272729 218.90581294 -14.04550086 224.34553927 -36.33496094 234.01269531 C-72.53697539 250.75194616 -90.92369171 281.14625883 -107 316 C-112.74319518 316.16944866 -118.48655153 316.32978385 -124.23022461 316.48217773 C-126.17853405 316.53509558 -128.12678098 316.59037585 -130.07495117 316.64819336 C-140.79007278 316.96455767 -151.32684135 317.20319256 -162 316 C-154.82153216 300.40867171 -146.96209041 285.20300132 -139 270 C-137.48388272 267.09649682 -135.96904555 264.19232875 -134.4543457 261.28808594 C-133.48329625 259.42651389 -132.51177784 257.56518639 -131.53979492 255.70410156 C-127.08304013 247.16916939 -122.65215229 238.6209072 -118.22412109 230.07104492 C-114.88158516 223.61970065 -111.52576854 217.17557039 -108.15625 210.73828125 C-104.37872423 203.5205088 -100.61689784 196.29979746 -97 189 C-92.35387632 179.62296937 -87.47138507 170.36990179 -82.61962891 161.09814453 C-75.61927219 147.70735062 -68.67647824 134.28712786 -61.79296875 120.8359375 C-61.33680679 119.94460114 -60.88064484 119.05326477 -60.41065979 118.13491821 C-58.15012128 113.71677212 -55.89133936 109.29773841 -53.63500977 104.87744141 C-49.43745787 96.66166428 -45.20527869 88.46745946 -40.890625 80.3125 C-36.65777993 72.30644997 -32.57183115 64.23517608 -28.55123901 56.12078857 C-23.24372681 45.41331758 -17.8916183 34.73850177 -12.27368164 24.18969727 C-8.37482029 16.86304084 -4.67680565 9.44001144 -1 2 C-0.67 1.34 -0.34 0.68 0 0 Z " fill="#641BDE" transform="translate(167,5)"/>
<path d="M0 0 C0 0.66 0 1.32 0 2 C0.66 2.33 1.32 2.66 2 3 C2.495 4.485 2.495 4.485 3 6 C2.34 6.66 1.68 7.32 1 8 C0.34 6.02 -0.32 4.04 -1 2 C-1.66 2 -2.32 2 -3 2 C-3.11069824 2.71486572 -3.22139648 3.42973145 -3.33544922 4.16625977 C-4.05447462 7.23228762 -5.15594155 9.56122004 -6.6328125 12.33984375 C-7.46075317 13.91342651 -7.46075317 13.91342651 -8.30541992 15.51879883 C-9.20611206 17.21105591 -9.20611206 17.21105591 -10.125 18.9375 C-11.3984995 21.35469557 -12.6664412 23.77478472 -13.93359375 26.1953125 C-14.2630751 26.82369522 -14.59255646 27.45207794 -14.93202209 28.09950256 C-18.77922222 35.45592882 -22.48686137 42.88156174 -26.1875 50.3125 C-26.5087384 50.95702118 -26.82997681 51.60154236 -27.16094971 52.26559448 C-28.61042604 55.1740838 -30.05838256 58.08331569 -31.50463867 60.9934082 C-32.99887035 63.99772872 -34.49841313 66.99934994 -36 70 C-36.33 70 -36.66 70 -37 70 C-36.67 67.03 -36.34 64.06 -36 61 C-35.01 61 -34.02 61 -33 61 C-33 59.68 -33 58.36 -33 57 C-32.34 57 -31.68 57 -31 57 C-30.505 54.03 -30.505 54.03 -30 51 C-29.34 51 -28.68 51 -28 51 C-27.505 48.03 -27.505 48.03 -27 45 C-26.34 45 -25.68 45 -25 45 C-25 43.68 -25 42.36 -25 41 C-24.34 41 -23.68 41 -23 41 C-22.505 38.03 -22.505 38.03 -22 35 C-21.34 35 -20.68 35 -20 35 C-19.855625 34.05125 -19.71125 33.1025 -19.5625 32.125 C-19 29 -19 29 -18 27 C-17.34 27 -16.68 27 -16 27 C-15.91621094 26.34 -15.83242187 25.68 -15.74609375 25 C-14.7527792 21.0059394 -12.95774144 17.63618003 -11.0625 14 C-10.34318789 12.60512642 -9.62569378 11.2093136 -8.91015625 9.8125 C-8.40572998 8.83023438 -8.40572998 8.83023438 -7.89111328 7.828125 C-6.89178058 5.84493313 -6.89178058 5.84493313 -5.87109375 3.0625 C-4.52555994 -0.1233379 -3.3906784 0 0 0 Z " fill="#944EF5" transform="translate(170,99)"/>
<path d="M0 0 C3.57085856 1.19028619 4.00140257 2.40194828 5.65252686 5.63597107 C5.96828674 6.28074905 6.28404663 6.92552704 6.609375 7.58984375 C6.9404425 8.2495668 7.27151001 8.90928986 7.61260986 9.58900452 C8.30990564 10.9845756 9.00222909 12.38264051 9.68994141 13.78295898 C10.74727749 15.93196658 11.82349155 18.0707121 12.90234375 20.20898438 C13.57666969 21.56453327 14.24988516 22.92063526 14.921875 24.27734375 C15.24573181 24.9200975 15.56958862 25.56285126 15.90325928 26.2250824 C16.66404272 27.78809362 17.34049598 29.39163127 18 31 C17.67 31.66 17.34 32.32 17 33 C14.16098599 30.51448189 12.7392312 27.82488922 11.08203125 24.45703125 C10.55029297 23.38388672 10.01855469 22.31074219 9.47070312 21.20507812 C8.92349609 20.08552734 8.37628906 18.96597656 7.8125 17.8125 C7.25369141 16.68134766 6.69488281 15.55019531 6.11914062 14.38476562 C4.74066222 11.59246321 3.36786344 8.79751362 2 6 C1.34 6 0.68 6 0 6 C-0.25007813 6.50015625 -0.50015625 7.0003125 -0.7578125 7.515625 C-7.9296875 21.859375 -7.9296875 21.859375 -8.96386719 23.90820312 C-9.67799644 25.34992307 -10.3701652 26.80265943 -11.04394531 28.26367188 C-11.38264648 28.98619141 -11.72134766 29.70871094 -12.0703125 30.453125 C-12.36953613 31.10958008 -12.66875977 31.76603516 -12.97705078 32.44238281 C-14 34 -14 34 -17 35 C-15.53894387 30.201506 -13.5810143 25.88777853 -11.3125 21.4375 C-10.78946289 20.40109375 -10.78946289 20.40109375 -10.25585938 19.34375 C-6.95276728 12.83313447 -3.50807151 6.40223051 0 0 Z " fill="#B44BFC" transform="translate(167,5)"/>
<path d="M0 0 C3.41140861 1.70570431 4.30270081 5.64492989 5.8125 9 C8.63971212 15.15845591 11.58915383 21.13760815 15 27 C15.66 27 16.32 27 17 27 C18.80488492 23.46032279 20.46467342 19.85940561 22.125 16.25 C22.66382813 15.07953125 23.20265625 13.9090625 23.7578125 12.703125 C24.16773438 11.81109375 24.57765625 10.9190625 25 10 C25.33 10 25.66 10 26 10 C26.80436749 16.21373883 24.04121038 20.22138133 21 25.375 C20.52304687 26.20644531 20.04609375 27.03789062 19.5546875 27.89453125 C18.38108873 29.9365931 17.19610873 31.97106875 16 34 C15.34 34 14.68 34 14 34 C11.99353692 29.96763433 10.00018592 25.92914831 8.01855469 21.88452148 C7.34306006 20.5103789 6.66405633 19.13795539 5.98144531 17.76733398 C4.99910871 15.79335292 4.02968716 13.81347038 3.0625 11.83203125 C2.75626709 11.22349808 2.45003418 10.6149649 2.13452148 9.98799133 C0.45448365 6.5101766 -0.35706415 3.86713227 0 0 Z " fill="#422DAD" transform="translate(306,378)"/>
<path d="M0 0 C0.33 0.66 0.66 1.32 1 2 C-0.136225 4.40470899 -1.32545712 6.68555987 -2.625 9 C-3.38118574 10.37967308 -4.13639613 11.75988118 -4.890625 13.140625 C-5.44266602 14.14512695 -5.44266602 14.14512695 -6.00585938 15.16992188 C-7.18352584 17.3378462 -8.29060687 19.53406622 -9.375 21.75 C-13.4056306 29.92283575 -17.73952876 37.94541479 -22 46 C-22.81469271 43.66572403 -23.12852318 42.39577365 -22.35424805 40.01147461 C-21.81344604 38.96745483 -21.81344604 38.96745483 -21.26171875 37.90234375 C-20.85832275 37.10948975 -20.45492676 36.31663574 -20.03930664 35.49975586 C-19.59321045 34.65421143 -19.14711426 33.80866699 -18.6875 32.9375 C-18.23689209 32.06295166 -17.78628418 31.18840332 -17.32202148 30.28735352 C-16.37286391 28.4504283 -15.41806344 26.61640924 -14.45800781 24.78515625 C-13.02713064 22.05182625 -11.61692142 19.30870247 -10.2109375 16.5625 C-9.32909721 14.85366461 -8.44631984 13.14531239 -7.5625 11.4375 C-7.1502417 10.63497803 -6.7379834 9.83245605 -6.31323242 9.00561523 C-5.92240479 8.25997314 -5.53157715 7.51433105 -5.12890625 6.74609375 C-4.78931885 6.09310303 -4.44973145 5.4401123 -4.09985352 4.76733398 C-2.9309868 2.88910398 -1.61866064 1.498974 0 0 Z " fill="#6039CD" transform="translate(55,226)"/>
<path d="M0 0 C0.95503382 2.54360132 1.12463471 3.67411928 0.13891602 6.25146484 C-0.54666382 7.46890381 -0.54666382 7.46890381 -1.24609375 8.7109375 C-2.0026123 10.07484619 -2.0026123 10.07484619 -2.77441406 11.46630859 C-3.32323242 12.42617676 -3.87205078 13.38604492 -4.4375 14.375 C-4.9850293 15.3542041 -5.53255859 16.3334082 -6.09667969 17.34228516 C-7.71855799 20.23550677 -9.35687988 23.11880086 -11 26 C-11.86095331 27.52067698 -12.72166041 29.0414934 -13.58203125 30.5625 C-15.37237666 33.71745453 -17.17950391 36.86232145 -19 40 C-19.66 40 -20.32 40 -21 40 C-20.42651367 36.03515627 -19.21232336 33.36402678 -17.0625 30 C-14.98949093 26.74023144 -13.34085591 23.62743629 -12 20 C-11.01 20 -10.02 20 -9 20 C-8.87625 19.071875 -8.7525 18.14375 -8.625 17.1875 C-8 14 -8 14 -6 11 C-5.34 11 -4.68 11 -4 11 C-3.896875 10.113125 -3.79375 9.22625 -3.6875 8.3125 C-2.98809298 4.9426298 -1.91257489 2.82728462 0 0 Z " fill="#4F30BA" transform="translate(358,342)"/>
<path d="M0 0 C18.15 0 36.3 0 55 0 C54.67 0.99 54.34 1.98 54 3 C54 2.34 54 1.68 54 1 C53.43671494 1.16527695 52.87342987 1.33055389 52.29307556 1.50083923 C49.85874348 2.03074897 47.79819388 2.06739197 45.31079102 1.98657227 C43.92398888 1.94772667 43.92398888 1.94772667 42.50917053 1.90809631 C41.51743332 1.87783859 40.52569611 1.84758087 39.50390625 1.81640625 C37.3978281 1.77454255 35.2917049 1.73489722 33.18554688 1.69726562 C29.86848362 1.63554253 26.55385076 1.56221099 23.23803711 1.45141602 C20.03458091 1.34838575 16.83366141 1.29664428 13.62890625 1.25390625 C12.14433678 1.18726524 12.14433678 1.18726524 10.629776 1.11927795 C7.86515009 1.10785828 5.64151296 1.17821117 3 2 C0.62368499 4.38195676 -0.70415004 6.91908414 -2 10 C-2.433125 10.99 -2.86625 11.98 -3.3125 13 C-3.6528125 13.99 -3.6528125 13.99 -4 15 C-4.66 14.67 -5.32 14.34 -6 14 C-4.46371007 8.87903356 -2.4723363 4.94467261 0 0 Z " fill="#9A4AFA" transform="translate(414,147)"/>
<path d="M0 0 C0.33 0 0.66 0 1 0 C0.48384564 5.15624348 -0.69787875 8.993807 -3.0546875 13.59765625 C-3.35690216 14.19501083 -3.65911682 14.79236542 -3.9704895 15.40782166 C-4.92927383 17.29767398 -5.90175095 19.18006326 -6.875 21.0625 C-7.52046304 22.32830133 -8.16500232 23.59457415 -8.80859375 24.86132812 C-9.99677772 27.19711993 -11.19117763 29.52929858 -12.39013672 31.85961914 C-13.94699755 34.89660744 -15.47893963 37.94494997 -17 41 C-17.33 41 -17.66 41 -18 41 C-17.67 38.03 -17.34 35.06 -17 32 C-16.01 32 -15.02 32 -14 32 C-14 30.68 -14 29.36 -14 28 C-13.34 28 -12.68 28 -12 28 C-11.67 26.02 -11.34 24.04 -11 22 C-10.34 22 -9.68 22 -9 22 C-8.67 20.02 -8.34 18.04 -8 16 C-7.34 16 -6.68 16 -6 16 C-6 14.68 -6 13.36 -6 12 C-5.34 12 -4.68 12 -4 12 C-3.67 10.02 -3.34 8.04 -3 6 C-2.34 6 -1.68 6 -1 6 C-0.67 4.02 -0.34 2.04 0 0 Z " fill="#904BF3" transform="translate(151,128)"/>
<path d="M0 0 C0.66 0.33 1.32 0.66 2 1 C0.68583212 5.30950905 -0.98320675 9.05876579 -3.1875 12.984375 C-3.80367188 14.08394531 -4.41984375 15.18351562 -5.0546875 16.31640625 C-5.69664062 17.44949219 -6.33859375 18.58257812 -7 19.75 C-7.64195312 20.89855469 -8.28390625 22.04710937 -8.9453125 23.23046875 C-13.73155323 31.73155323 -13.73155323 31.73155323 -16 34 C-15.51949941 28.51950779 -14.13409306 24.8901551 -11.3125 20.1875 C-10.95599365 19.58510498 -10.5994873 18.98270996 -10.23217773 18.36206055 C-9.1666372 16.56725272 -8.08590582 14.78254373 -7 13 C-5.85381186 11.10438115 -4.70793052 9.20857673 -3.5625 7.3125 C-3.08941406 6.54550781 -2.61632812 5.77851563 -2.12890625 4.98828125 C-0.86027805 2.90319096 -0.86027805 2.90319096 0 0 Z " fill="#7941E2" transform="translate(402,263)"/>
<path d="M0 0 C3.7805636 4.73593068 6.09701761 10.11747315 8.6875 15.5625 C9.19861328 16.61630859 9.70972656 17.67011719 10.23632812 18.75585938 C10.71908203 19.76583984 11.20183594 20.77582031 11.69921875 21.81640625 C12.14096436 22.73881104 12.58270996 23.66121582 13.0378418 24.61157227 C14 27 14 27 14 30 C14.66 30.33 15.32 30.66 16 31 C16.33 31.99 16.66 32.98 17 34 C16.34 34.66 15.68 35.32 15 36 C12.85112341 31.68281548 10.71534099 27.35949124 8.59130859 23.0300293 C7.86731394 21.55887864 7.13980544 20.08945173 6.40869141 18.62182617 C5.35685946 16.50886036 4.31792581 14.38996602 3.28125 12.26953125 C2.95314331 11.61725052 2.62503662 10.96496979 2.2869873 10.29292297 C0.5554488 6.71658755 -0.3997226 3.98723293 0 0 Z " fill="#4823BA" transform="translate(289,342)"/>
<path d="M0 0 C1.06323242 1.85424805 1.06323242 1.85424805 2 4 C0.98828125 6.33203125 0.98828125 6.33203125 -0.6875 8.8125 C-3.25265939 12.78473328 -5.16184263 16.63437624 -7 21 C-7.97577198 22.97051731 -8.97773913 24.92819437 -10 26.875 C-10.495 27.82117188 -10.99 28.76734375 -11.5 29.7421875 C-13 32 -13 32 -16 33 C-14.63991052 28.56949392 -12.89140424 24.61086264 -10.7421875 20.5078125 C-10.43427277 19.91700897 -10.12635803 19.32620544 -9.80911255 18.71749878 C-8.83520491 16.85113872 -7.85522261 14.98804976 -6.875 13.125 C-6.2092295 11.85177467 -5.54386096 10.57833907 -4.87890625 9.3046875 C-3.25724259 6.20068121 -1.63011907 3.09957584 0 0 Z " fill="#973AF9" transform="translate(133,72)"/>
<path d="M0 0 C0 6.08697138 -2.71766756 10.07650133 -6 15 C-7.42927125 17.9606333 -8.73281696 20.96684911 -10 24 C-10.66 23.67 -11.32 23.34 -12 23 C-10.47342723 17.9511786 -8.35878819 13.38371054 -6 8.6875 C-5.64421875 7.95982422 -5.2884375 7.23214844 -4.921875 6.48242188 C-2.24421584 1.12210792 -2.24421584 1.12210792 0 0 Z " fill="#593CBE" transform="translate(30,274)"/>
<path d="M0 0 C0.66 0.33 1.32 0.66 2 1 C0.66666667 4.33333333 -0.66666667 7.66666667 -2 11 C0.31 11.33 2.62 11.66 5 12 C4.67 12.66 4.34 13.32 4 14 C0.37 14 -3.26 14 -7 14 C-4.69 9.38 -2.38 4.76 0 0 Z " fill="#2C1AA1" transform="translate(12,307)"/>
<path d="M0 0 C0.33 0.66 0.66 1.32 1 2 C-0.20092985 4.50564377 -1.45117688 6.89620905 -2.8125 9.3125 C-5.12443071 13.47236136 -7.36066971 17.51569439 -9 22 C-9.66 21.67 -10.32 21.34 -11 21 C-9.56915026 16.34258409 -7.68340658 12.03147418 -5.5 7.6875 C-5.19191406 7.05521484 -4.88382813 6.42292969 -4.56640625 5.77148438 C-2.24420759 1.12210379 -2.24420759 1.12210379 0 0 Z " fill="#6131D2" transform="translate(55,226)"/>
<path d="M0 0 C0.97502945 2.57593987 1.12379227 3.68369069 0.10375977 6.29003906 C-0.36231689 7.10698242 -0.82839355 7.92392578 -1.30859375 8.765625 C-1.80810547 9.65507812 -2.30761719 10.54453125 -2.82226562 11.4609375 C-3.35529297 12.38132812 -3.88832031 13.30171875 -4.4375 14.25 C-4.96666016 15.18585938 -5.49582031 16.12171875 -6.04101562 17.0859375 C-7.34987106 19.39706962 -8.66975947 21.70113158 -10 24 C-10.33 22.68 -10.66 21.36 -11 20 C-10.34 20 -9.68 20 -9 20 C-8.87625 19.071875 -8.7525 18.14375 -8.625 17.1875 C-8 14 -8 14 -6 11 C-5.34 11 -4.68 11 -4 11 C-3.8453125 9.6696875 -3.8453125 9.6696875 -3.6875 8.3125 C-2.98809298 4.9426298 -1.91257489 2.82728462 0 0 Z " fill="#6945C8" transform="translate(358,342)"/>
<path d="M0 0 C2.96430761 3.55716913 4.7721925 7.45050932 6.6875 11.625 C7.00783203 12.305625 7.32816406 12.98625 7.65820312 13.6875 C10 18.74058835 10 18.74058835 10 21 C10.66 21.33 11.32 21.66 12 22 C11.01 22.33 10.02 22.66 9 23 C7.48729764 19.92274141 5.99211419 16.83728731 4.5 13.75 C4.07074219 12.87730469 3.64148438 12.00460937 3.19921875 11.10546875 C2.79316406 10.26113281 2.38710938 9.41679687 1.96875 8.546875 C1.59169922 7.77182617 1.21464844 6.99677734 0.82617188 6.19824219 C0 4 0 4 0 0 Z " fill="#5224C0" transform="translate(274,311)"/>
<path d="M0 0 C0.66 0 1.32 0 2 0 C1.38367054 4.95998472 -0.79835629 8.93671966 -3.0625 13.3125 C-3.62807617 14.42334961 -3.62807617 14.42334961 -4.20507812 15.55664062 C-5.13128157 17.37387522 -6.06490629 19.18732404 -7 21 C-7.66 21 -8.32 21 -9 21 C-7.66902183 16.69843286 -6.00062707 12.81202643 -3.9375 8.8125 C-2.42292815 5.86852783 -1.04722531 3.14167593 0 0 Z " fill="#4B31B4" transform="translate(68,297)"/>
<path d="M0 0 C2.79338987 3.43138632 4.77735487 7.18782761 6.75 11.125 C7.24306641 12.07439453 7.24306641 12.07439453 7.74609375 13.04296875 C8.56197269 14.66439906 9.28852285 16.33012128 10 18 C9.67 18.66 9.34 19.32 9 20 C5.75737007 17.27779216 4.10240475 13.72005562 2.25 10 C1.92128906 9.3709375 1.59257812 8.741875 1.25390625 8.09375 C0.42074868 6.43446573 -0.29763177 4.71873637 -1 3 C-0.67 2.01 -0.34 1.02 0 0 Z " fill="#B54AFC" transform="translate(175,18)"/>
<path d="M0 0 C0.66 0 1.32 0 2 0 C1.38188466 4.55315948 -0.46765893 8.28459767 -2.5625 12.3125 C-2.89185547 12.95767578 -3.22121094 13.60285156 -3.56054688 14.26757812 C-4.36824255 15.84785228 -5.18337613 17.42432105 -6 19 C-6.33 19 -6.66 19 -7 19 C-6.505 14.545 -6.505 14.545 -6 10 C-5.01 10 -4.02 10 -3 10 C-3 8.68 -3 7.36 -3 6 C-2.34 6 -1.68 6 -1 6 C-0.67 4.02 -0.34 2.04 0 0 Z " fill="#9B61EF" transform="translate(140,150)"/>
<path d="M0 0 C0 0.66 0 1.32 0 2 C0.66 2.33 1.32 2.66 2 3 C2.33 3.99 2.66 4.98 3 6 C2.34 6.66 1.68 7.32 1 8 C0.34 6.02 -0.32 4.04 -1 2 C-1.66 2 -2.32 2 -3 2 C-3.103125 2.7425 -3.20625 3.485 -3.3125 4.25 C-4.04253504 7.17014018 -5.06789398 8.73187554 -7 11 C-6.54177532 7.53058454 -6.10868317 4.32604951 -5 1 C-3 0 -3 0 0 0 Z " fill="#A35AF8" transform="translate(170,99)"/>
<path d="M0 0 C-10.66666667 9 -10.66666667 9 -15 9 C-13.52519903 5.17551612 -11.54705088 3.74957636 -8.0625 1.6875 C-7.18722656 1.15511719 -6.31195313 0.62273437 -5.41015625 0.07421875 C-3 -1 -3 -1 0 0 Z " fill="#6A30D9" transform="translate(125,241)"/>
<path d="M0 0 C1.02018585 2.6686569 1.06982104 3.80064256 0.109375 6.54296875 C-0.33921875 7.41566406 -0.7878125 8.28835937 -1.25 9.1875 C-1.90742188 10.50814453 -1.90742188 10.50814453 -2.578125 11.85546875 C-4 14 -4 14 -7 15 C-5.45454854 9.52067211 -2.84456788 4.88570819 0 0 Z " fill="#AF51FA" transform="translate(149,41)"/>
<path d="M0 0 C2.54080889 2.9826887 3.2802322 5.19551307 4 9 C4.66 9.33 5.32 9.66 6 10 C6.33 10.99 6.66 11.98 7 13 C6.34 13.66 5.68 14.32 5 15 C4.15415002 13.44424022 3.32381601 11.8800388 2.5 10.3125 C2.0359375 9.44238281 1.571875 8.57226562 1.09375 7.67578125 C-0.04818792 4.88211171 -0.21504208 2.98370887 0 0 Z " fill="#4323B3" transform="translate(299,363)"/>
<path d="M0 0 C0.66 0 1.32 0 2 0 C0.45454854 5.47932789 -2.15543212 10.11429181 -5 15 C-5.33 15 -5.66 15 -6 15 C-6.20086443 11.28400809 -6.1519437 10.22791555 -4 7 C-3.34 7 -2.68 7 -2 7 C-1.855625 6.21625 -1.71125 5.4325 -1.5625 4.625 C-1 2 -1 2 0 0 Z " fill="#6B43D0" transform="translate(370,321)"/>
<path d="M0 0 C0.33 0 0.66 0 1 0 C0.38857603 7.45937249 0.38857603 7.45937249 -1.4375 10 C-3 11 -3 11 -5 11 C-3.77782954 6.95743617 -2.37245704 3.50711041 0 0 Z " fill="#6E43D5" transform="translate(333,306)"/>
<path d="M0 0 C0.66 0 1.32 0 2 0 C2.72767003 1.23884319 3.43154815 2.49168341 4.125 3.75 C4.51945312 4.44609375 4.91390625 5.1421875 5.3203125 5.859375 C6 8 6 8 5.1171875 10.265625 C4.74851562 10.83796875 4.37984375 11.4103125 4 12 C3.32332002 10.75539217 2.65905281 9.50403104 2 8.25 C1.62875 7.55390625 1.2575 6.8578125 0.875 6.140625 C0 4 0 4 0 0 Z " fill="#682CDF" transform="translate(291,251)"/>
<path d="M0 0 C0.66 1.32 1.32 2.64 2 4 C1.05016642 5.50539661 0.08988109 7.00420347 -0.875 8.5 C-1.40867187 9.3353125 -1.94234375 10.170625 -2.4921875 11.03125 C-2.98976563 11.6809375 -3.48734375 12.330625 -4 13 C-4.66 13 -5.32 13 -6 13 C-4.58707905 8.1725201 -2.57025846 4.2837641 0 0 Z " fill="#7C3EE7" transform="translate(367,240)"/>
<path d="M0 0 C1.1484375 1.703125 1.1484375 1.703125 2 4 C1.1015625 6.359375 1.1015625 6.359375 -0.375 8.75 C-1.09816406 9.94882813 -1.09816406 9.94882813 -1.8359375 11.171875 C-2.22007813 11.77515625 -2.60421875 12.3784375 -3 13 C-3.99 13 -4.98 13 -6 13 C-4.31326082 8.50202887 -2.18326108 4.27113698 0 0 Z " fill="#8F40F3" transform="translate(114,109)"/>
<path d="M0 0 C0.66 0 1.32 0 2 0 C1.39288519 4.12838068 0.12477683 7.40422382 -2 11 C-2.99 11.33 -3.98 11.66 -5 12 C-4.67 10.35 -4.34 8.7 -4 7 C-3.34 7 -2.68 7 -2 7 C-1.855625 6.21625 -1.71125 5.4325 -1.5625 4.625 C-1 2 -1 2 0 0 Z " fill="#4A27BC" transform="translate(75,284)"/>
<path d="M0 0 C1.38609004 3.15020465 0.89180331 4.31918022 -0.25 7.6875 C-2 11 -2 11 -5 12 C-3.68938409 7.76570244 -2.05643741 3.92592596 0 0 Z " fill="#6735D3" transform="translate(339,294)"/>
<path d="M0 0 C0.66 0 1.32 0 2 0 C1.38801624 3.43950364 0.07941153 5.51564485 -2.0625 8.25 C-2.61035156 8.95640625 -3.15820312 9.6628125 -3.72265625 10.390625 C-4.14417969 10.92171875 -4.56570312 11.4528125 -5 12 C-6 9 -6 9 -5 6 C-3.68733482 4.64631404 -2.35432675 3.31200404 -1 2 C-0.67 1.34 -0.34 0.68 0 0 Z " fill="#633FCA" transform="translate(87,268)"/>
<path d="M0 0 C3.31225448 1.65612724 3.76982575 4.64497931 5 8 C5.1875 10.9375 5.1875 10.9375 5 13 C1.55524038 8.61576048 -0.31620235 5.69164233 0 0 Z " fill="#452DB5" transform="translate(306,378)"/>
<path d="M0 0 C0.66 0 1.32 0 2 0 C3.65 3.63 5.3 7.26 7 11 C6.34 11.66 5.68 12.32 5 13 C4.16209211 11.21046815 3.32980604 9.41830305 2.5 7.625 C1.80390625 6.12839844 1.80390625 6.12839844 1.09375 4.6015625 C0 2 0 2 0 0 Z " fill="#7B4AD6" transform="translate(256,276)"/>
<path d="M0 0 C0.88336837 2.4667645 1.1312406 3.63859372 0.22265625 6.140625 C-0.16019531 6.83671875 -0.54304687 7.5328125 -0.9375 8.25 C-1.31777344 8.95640625 -1.69804687 9.6628125 -2.08984375 10.390625 C-2.39019531 10.92171875 -2.69054687 11.4528125 -3 12 C-3.66 11.67 -4.32 11.34 -5 11 C-3.55049545 7.2089881 -1.84827434 3.6125362 0 0 Z " fill="#8F3CF9" transform="translate(162,107)"/>
<path d="M0 0 C0.66 0 1.32 0 2 0 C0.81819916 5.02265357 -0.44992282 8.0949151 -4 12 C-3.45660208 7.43545749 -2.20536179 4.0271824 0 0 Z " fill="#4923BC" transform="translate(36,260)"/>
<path d="M0 0 C0.99 0 1.98 0 3 0 C1.4169423 4.2742558 -1.50568404 6.26531794 -5 9 C-5 8.01 -5 7.02 -5 6 C-4.34 6 -3.68 6 -3 6 C-2.690625 5.195625 -2.38125 4.39125 -2.0625 3.5625 C-1 1 -1 1 0 0 Z " fill="#5B2BCC" transform="translate(97,257)"/>
<path d="M0 0 C1.28222189 3.03070628 0.98589446 4.03596914 -0.25 7.1875 C-2 10 -2 10 -5 11 C-3.77472971 6.94718288 -2.30119506 3.55639236 0 0 Z " fill="#9C4EF8" transform="translate(122,94)"/>
<path d="M0 0 C0.66 0 1.32 0 2 0 C1.44271087 3.34373475 0.64826111 6.03312999 -1 9 C-1.66 9 -2.32 9 -3 9 C-2.44271087 5.65626525 -1.64826111 2.96687001 0 0 Z " fill="#4126B1" transform="translate(340,373)"/>
<path d="M0 0 C0.88336837 2.4667645 1.1312406 3.63859372 0.22265625 6.140625 C-0.16019531 6.83671875 -0.54304688 7.5328125 -0.9375 8.25 C-1.31777344 8.95640625 -1.69804687 9.6628125 -2.08984375 10.390625 C-2.39019531 10.92171875 -2.69054687 11.4528125 -3 12 C-3.33 12 -3.66 12 -4 12 C-3.5317879 7.22423661 -2.75668002 3.95523655 0 0 Z " fill="#6D38DA" transform="translate(390,285)"/>
<path d="M0 0 C0.66 0 1.32 0 2 0 C0.77472971 4.05281712 -0.69880494 7.44360764 -3 11 C-3.75 9.4375 -3.75 9.4375 -4 7 C-2.86915563 4.49713591 -1.47860484 2.32992278 0 0 Z " fill="#A156F9" transform="translate(457,166)"/>
<path d="M0 0 C0.66 0 1.32 0 2 0 C4.15305957 3.85756507 5.39253254 6.55129785 5 11 C2.03947516 7.63576723 1.07710178 4.30840713 0 0 Z " fill="#502FBA" transform="translate(294,355)"/>
<path d="M0 0 C0.33 0.66 0.66 1.32 1 2 C0.22265625 3.9453125 0.22265625 3.9453125 -0.9375 6.125 C-1.31777344 6.84945312 -1.69804688 7.57390625 -2.08984375 8.3203125 C-2.39019531 8.87460938 -2.69054687 9.42890625 -3 10 C-3.66 9.67 -4.32 9.34 -5 9 C-3.90931332 5.22454612 -3.0916909 2.52956528 0 0 Z " fill="#5F22D8" transform="translate(69,199)"/>
<path d="M0 0 C0.75 1.5625 0.75 1.5625 1 4 C-0.13084437 6.50286409 -1.52139516 8.67007722 -3 11 C-3.33 9.68 -3.66 8.36 -4 7 C-3.34 7 -2.68 7 -2 7 C-1.855625 6.21625 -1.71125 5.4325 -1.5625 4.625 C-1 2 -1 2 0 0 Z " fill="#7443DD" transform="translate(384,296)"/>
<path d="M0 0 C1.98 0 3.96 0 6 0 C-1.5 5 -1.5 5 -5 5 C-4.67 4.01 -4.34 3.02 -4 2 C-2.68 2 -1.36 2 0 2 C0 1.34 0 0.68 0 0 Z " fill="#7C46E1" transform="translate(130,236)"/>
<path d="M0 0 C0.66 0 1.32 0 2 0 C1.30058404 3.14737182 0.23921302 6.02588876 -1 9 C-1.66 8.67 -2.32 8.34 -3 8 C-1.125 2.25 -1.125 2.25 0 0 Z " fill="#4126B4" transform="translate(21,289)"/>
<path d="M0 0 C0.66 0 1.32 0 2 0 C1.30058404 3.14737182 0.23921302 6.02588876 -1 9 C-1.66 8.67 -2.32 8.34 -3 8 C-1.125 2.25 -1.125 2.25 0 0 Z " fill="#5122CA" transform="translate(47,239)"/>
<path d="M0 0 C3.25 -0.25 3.25 -0.25 7 0 C8.32 1.32 9.64 2.64 11 4 C7.37 3.01 3.74 2.02 0 1 C0 0.67 0 0.34 0 0 Z " fill="#8857E5" transform="translate(198,230)"/>
<path d="M0 0 C-2.68841859 2.25245881 -4.64641875 3.88213958 -8 5 C-8 4.01 -8 3.02 -8 2 C-3.71900826 -1.23966942 -3.71900826 -1.23966942 0 0 Z " fill="#7545DA" transform="translate(125,241)"/>
<path d="M0 0 C0.33 0 0.66 0 1 0 C1.125 5.75 1.125 5.75 0 8 C-0.99 8 -1.98 8 -3 8 C-2.690625 7.236875 -2.38125 6.47375 -2.0625 5.6875 C-1.32106407 3.81210323 -0.63771783 1.91315348 0 0 Z " fill="#3218A8" transform="translate(331,388)"/>
<path d="M0 0 C0.6875 1.625 0.6875 1.625 1 4 C-0.4375 7.25 -0.4375 7.25 -2 10 C-2.33 10 -2.66 10 -3 10 C-3.36629408 5.72656908 -2.40814077 3.51187196 0 0 Z " fill="#5632C3" transform="translate(358,342)"/>
<path d="M0 0 C0.6875 1.75 0.6875 1.75 1 4 C-0.4375 6.25 -0.4375 6.25 -2 8 C-2.33 7.01 -2.66 6.02 -3 5 C-1.5625 2.3125 -1.5625 2.3125 0 0 Z " fill="#5329C6" transform="translate(363,333)"/>
<path d="M0 0 C0.6875 1.6875 0.6875 1.6875 1 4 C-0.4375 6.75 -0.4375 6.75 -2 9 C-2.6875 7.3125 -2.6875 7.3125 -3 5 C-1.5625 2.25 -1.5625 2.25 0 0 Z " fill="#612FD0" transform="translate(375,312)"/>
<path d="M0 0 C0 3.38023517 -0.87455622 5.83468937 -2 9 C-2.33 9 -2.66 9 -3 9 C-3.36923077 3.46153846 -3.36923077 3.46153846 -1.5 1.125 C-1.005 0.75375 -0.51 0.3825 0 0 Z " fill="#4526BA" transform="translate(30,274)"/>
<path d="M0 0 C4 4.75 4 4.75 4 7 C0.83884224 5.63016497 0.0072908 5.0109362 -2 2 C-1.34 2 -0.68 2 0 2 C0 1.34 0 0.68 0 0 Z " fill="#8D68E2" transform="translate(232,245)"/>
<path d="M0 0 C0.33 0 0.66 0 1 0 C1.25 2.25 1.25 2.25 1 5 C-1 7.3125 -1 7.3125 -3 9 C-3 5.30581799 -1.71820705 3.22163822 0 0 Z " fill="#7A40E6" transform="translate(79,177)"/>
<path d="M0 0 C1.9375 0.75 1.9375 0.75 4 2 C4.875 4 4.875 4 5 6 C4.34 6.66 3.68 7.32 3 8 C2.01 5.36 1.02 2.72 0 0 Z " fill="#943BF3" transform="translate(182,127)"/>
<path d="M0 0 C2.15377564 2.62198774 3.40072174 4.64404172 4 8 C3.01 7.67 2.02 7.34 1 7 C-0.1875 3.9375 -0.1875 3.9375 -1 1 C-0.67 0.67 -0.34 0.34 0 0 Z " fill="#BF5AFD" transform="translate(175,18)"/>
</svg>
